<?xml version="1.0" encoding="UTF-8" standalone="no"?>
<svg
   width="1000"
   height="285.71484"
   version="1.1"
   id="svg4"
   sodipodi:docname="blq-orbit-blocks_white.svg"
   inkscape:version="1.1.1 (3bf5ae0d25, 2021-09-20)"
   xmlns:inkscape="http://www.inkscape.org/namespaces/inkscape"
   xmlns:sodipodi="http://sodipodi.sourceforge.net/DTD/sodipodi-0.dtd"
   xmlns="http://www.w3.org/2000/svg"
   xmlns:svg="http://www.w3.org/2000/svg">
  <defs
     id="defs8" />
  <sodipodi:namedview
     id="namedview6"
     pagecolor="#ffffff"
     bordercolor="#666666"
     borderopacity="1.0"
     inkscape:pageshadow="2"
     inkscape:pageopacity="0.0"
     inkscape:pagecheckerboard="0"
     showgrid="false"
     inkscape:zoom="0.5"
     inkscape:cx="485"
     inkscape:cy="89"
     inkscape:window-width="1366"
     inkscape:window-height="705"
     inkscape:window-x="-8"
     inkscape:window-y="-8"
     inkscape:window-maximized="1"
     inkscape:current-layer="svg4">
    <inkscape:grid
       type="xygrid"
       id="grid4569"
       originx="-1e-05"
       originy="0" />
  </sodipodi:namedview>
  <path
     id="path1314-6"
     style="fill:#000000;stroke-width:11.9048"
     d="M 0,0 V 285.71484 H 285.71484 V 0 Z m 80.08789,64.089836 h 60.81055 c 17.92001,0 31.80125,3.52568 41.64257,10.57618 9.84132,6.9036 14.76172,16.89009 14.76172,29.962894 0,7.49115 -1.76381,14.02773 -5.28906,19.60937 -3.52525,5.43476 -8.73896,9.76852 -15.64258,13 9.54755,3.08459 16.8184,8.00499 21.8125,14.76172 5.14099,6.60984 7.71094,14.68878 7.71094,24.23633 0,9.40066 -2.49613,17.47959 -7.49023,24.23633 -4.84722,6.75672 -11.82475,11.97043 -20.93165,15.64257 -9.10688,3.67214 -20.04909,5.50782 -32.82812,5.50782 H 80.08789 Z m 32.82812,25.55664 v 39.218754 h 24.89844 c 8.51935,0 14.98211,-1.76186 19.38867,-5.28711 4.55344,-3.67213 6.83008,-8.74017 6.83008,-15.20312 0,-12.485264 -8.7394,-18.728524 -26.21875,-18.728524 z m 0,63.896494 v 42.52344 h 28.64258 c 9.84132,0 17.40744,-1.76382 22.69531,-5.28907 5.28788,-3.67212 7.93164,-8.88584 7.93164,-15.64257 0,-14.39476 -10.06225,-21.5918 -30.18554,-21.5918 z M 714.28515,0 V 285.71484 H 999.99999 V 0 Z m 154.59179,60.783203 c 8.6662,0 16.81897,0.955721 24.45703,2.865235 7.78494,1.762619 14.982,4.406393 21.5918,7.93164 v 31.287112 c -6.02227,-4.112791 -12.55884,-7.197509 -19.60937,-9.253909 -7.05047,-2.20328 -14.46702,-3.304687 -22.25196,-3.304687 -10.7226,0 -19.90296,2.055175 -27.54101,6.167968 -7.49116,4.112788 -13.29347,10.062738 -17.40625,17.847658 -3.96591,7.78493 -5.94922,17.25859 -5.94922,28.42187 0,11.16328 1.90949,20.71077 5.72851,28.64258 3.9659,7.78492 9.62058,13.73292 16.96485,17.84571 7.49118,4.11279 16.52387,6.16992 27.09961,6.16992 16.1574,0 31.06818,-4.33377 44.72851,-13 v 30.62695 c -6.463,3.67213 -13.95527,6.5354 -22.47461,8.5918 -8.51933,2.20328 -17.47824,3.30468 -26.8789,3.30468 -12.48526,0 -23.72274,-1.83567 -33.71094,-5.50781 -9.98821,-3.81902 -18.43428,-9.25419 -25.33789,-16.30469 -6.90361,-7.0505 -12.19115,-15.64225 -15.86328,-25.77734 -3.67214,-10.28197 -5.50781,-21.81278 -5.50781,-34.5918 0,-12.48525 1.90949,-23.72273 5.72851,-33.71093 3.81902,-10.135092 9.32606,-18.800671 16.52344,-25.998051 7.19738,-7.19738 15.7911,-12.70637 25.7793,-16.52539 10.13508,-3.81902 21.44442,-5.728516 33.92968,-5.728516 z M 357.14258,0 V 285.71484 H 642.85742 V 0 Z m 80.08789,64.089844 h 60.81055 c 17.92001,0 31.80125,3.525672 41.64257,10.576172 9.84132,6.903606 14.76172,16.890094 14.76172,29.962894 0,7.49115 -1.76381,14.02773 -5.28906,19.60937 -3.52525,5.43476 -8.73896,9.76852 -15.64258,13 9.54755,3.08459 16.8184,8.00499 21.8125,14.76172 5.14099,6.60984 7.71094,14.68878 7.71094,24.23633 0,9.40066 -2.49613,17.47959 -7.49023,24.23633 -4.84722,6.75672 -11.82475,11.97043 -20.93165,15.64257 -9.10688,3.67214 -20.04909,5.50782 -32.82812,5.50782 h -64.55664 z m 32.82812,25.55664 v 39.218746 h 24.89844 c 8.51935,0 14.98211,-1.76186 19.38867,-5.28711 4.55344,-3.67213 6.83008,-8.74017 6.83008,-15.20312 0,-12.485256 -8.7394,-18.728516 -26.21875,-18.728516 z m 0,63.896486 v 42.52344 h 28.64258 c 9.84132,0 17.40744,-1.76382 22.69531,-5.28907 5.28788,-3.67212 7.93164,-8.88584 7.93164,-15.64257 0,-14.39476 -10.06225,-21.5918 -30.18554,-21.5918 z" />
</svg>
